<?xml version="1.0" encoding="utf-8"?>
<svg width="90px" height="90px" id="svg2" version="1.1" viewBox="0 0 90 90" xmlns="http://www.w3.org/2000/svg">
<path style="color: rgb(0, 0, 0); font: medium sans-serif; text-indent: 0px; text-align: start; text-decoration: none solid rgb(0, 0, 0); letter-spacing: normal; word-spacing: normal; text-transform: none; direction: ltr; writing-mode: lr-tb; baseline-shift: baseline; text-anchor: start; white-space: normal; clip-rule: nonzero; display: inline; overflow: visible; visibility: visible; opacity: 1; isolation: auto; mix-blend-mode: normal; color-interpolation: srgb; color-interpolation-filters: linearrgb; fill-opacity: 1; fill-rule: evenodd; stroke: none; stroke-width: 200; stroke-linecap: butt; stroke-linejoin: miter; stroke-miterlimit: 4; stroke-dasharray: none; stroke-dashoffset: 0; stroke-opacity: 1; color-rendering: auto; image-rendering: auto; shape-rendering: auto; text-rendering: auto;" d="M 58.108 30.464 C 57.001 30.776 55.814 31.193 54.506 31.586 C 51.959 32.351 45.919 33.771 42.873 33.771 C 37.857 33.771 34.873 32.427 31.857 31.68 L 31.857 35.577 C 34.873 36.324 37.857 37.668 42.873 37.668 C 45.919 37.668 51.959 36.248 54.506 35.483 C 55.828 35.086 57.026 34.664 58.143 34.351 L 58.143 30.846 C 58.143 30.715 58.13 30.588 58.108 30.464 Z" id="path-2"/>
<path style="color: rgb(0, 0, 0); font: medium sans-serif; text-indent: 0px; text-align: start; text-decoration: none solid rgb(0, 0, 0); letter-spacing: normal; word-spacing: normal; text-transform: none; direction: ltr; writing-mode: lr-tb; baseline-shift: baseline; text-anchor: start; white-space: normal; clip-rule: nonzero; display: inline; overflow: visible; visibility: visible; opacity: 1; isolation: auto; mix-blend-mode: normal; color-interpolation: srgb; color-interpolation-filters: linearrgb; fill-opacity: 1; fill-rule: evenodd; stroke: none; stroke-width: 200; stroke-linecap: butt; stroke-linejoin: miter; stroke-miterlimit: 4; stroke-dasharray: none; stroke-dashoffset: 0; stroke-opacity: 1; color-rendering: auto; image-rendering: auto; shape-rendering: auto; text-rendering: auto;" d="M 58.143 36.351 C 57.026 36.664 55.828 37.086 54.506 37.483 C 51.959 38.248 45.919 39.668 42.873 39.668 C 37.857 39.668 34.873 38.324 31.857 37.577 L 31.857 42.546 C 34.873 43.293 37.857 44.636 42.873 44.636 C 45.919 44.636 51.959 43.216 54.506 42.451 C 55.828 42.054 57.026 41.633 58.143 41.319 Z" id="path-3"/>
<path style="color: rgb(0, 0, 0); font: medium sans-serif; text-indent: 0px; text-align: start; text-decoration: none solid rgb(0, 0, 0); letter-spacing: normal; word-spacing: normal; text-transform: none; direction: ltr; writing-mode: lr-tb; baseline-shift: baseline; text-anchor: start; white-space: normal; clip-rule: nonzero; display: inline; overflow: visible; visibility: visible; opacity: 1; isolation: auto; mix-blend-mode: normal; color-interpolation: srgb; color-interpolation-filters: linearrgb; fill-opacity: 1; fill-rule: evenodd; stroke: none; stroke-width: 200; stroke-linecap: butt; stroke-linejoin: miter; stroke-miterlimit: 4; stroke-dasharray: none; stroke-dashoffset: 0; stroke-opacity: 1; color-rendering: auto; image-rendering: auto; shape-rendering: auto; text-rendering: auto;" d="M 58.143 48.99 C 57.026 49.304 55.828 49.725 54.506 50.122 C 51.959 50.887 45.919 52.307 42.873 52.307 C 37.857 52.307 34.873 50.964 31.857 50.217 L 31.857 57.762 C 34.126 58.663 37.802 59.536 42.873 59.536 C 46.365 59.536 52.695 58.02 55.338 57.227 C 56.358 56.92 57.307 56.628 58.143 56.384 L 58.143 48.99 Z" id="path-5"/>
<path d="M 33.947 27 L 56.053 27 C 57.207 27 58.143 27.936 58.143 29.09 L 58.143 60.91 C 58.143 62.064 57.207 63 56.053 63 L 33.947 63 C 32.793 63 31.857 62.064 31.857 60.91 L 31.857 29.09 C 31.857 27.936 32.793 27 33.947 27 Z" id="path-1" style="opacity: 1; fill-opacity: 1; stroke-linecap: butt; stroke-linejoin: miter; stroke-miterlimit: 4; stroke-dasharray: none; stroke-dashoffset: 0; stroke-opacity: 1; stroke: rgb(0, 0, 0); fill: none;"/>
</svg>